Description
Format : MPEG-4
Format profile : Base Media / Version 2
Codec ID : mp42
File size : 932 MiB
Duration : 1h 44mn
Overall bit rate mode : Variable
Overall bit rate : 1 250 Kbps
Encoded date : UTC 2013-04-11 14:40:34
Tagged date : UTC 2013-04-11 16:06:44

Video
ID : 1
Format : AVC
Format/Info : Advanced Video Codec
Format profile : High@L3.0
Format settings, CABAC : Yes
Format settings, ReFrames : 4 frames
Codec ID : avc1
Codec ID/Info : Advanced Video Coding
Duration : 1h 44mn
Bit rate mode : Variable
Bit rate : 753 Kbps
Width : 720 pixels
Height : 368 pixels
Display aspect ratio : 2.25:1
Frame rate mode : Variable
Frame rate : 23.976 fps
Minimum frame rate : 12.617 fps
Maximum frame rate : 60.000 fps
Color space : YUV
Chroma subsampling : 4:2:0
Bit depth : 8 bits
Scan type : Progressive
Bits/(Pixel*Frame) : 0.118
Stream size : 562 MiB (60%)
Writing library : x264 core 120
Encoding settings : cabac=1 / ref=3 / deblock=1:0:0 / analyse=0x3:0x113 / me=hex / subme=7 / psy=1 / psy_rd=1.00:0.00 / mixed_ref=1 / me_range=16 / chroma_me=1 / trellis=1 / 8x8dct=1 / cqm=0 / deadzone=21,11 / fast_pskip=1 / chroma_qp_offset=-2 / threads=3 / sliced_threads=0 / nr=0 / decimate=1 / interlaced=0 / bluray_compat=0 / constrained_intra=0 / bframes=3 / b_pyramid=2 / b_adapt=2 / b_bias=0 / direct=1 / weightb=1 / open_gop=0 / weightp=2 / keyint=240 / keyint_min=24 / scenecut=40 / intra_refresh=0 / rc_lookahead=50 / rc=crf / mbtree=1 / crf=20.0 / qcomp=0.60 / qpmin=3 / qpmax=69 / qpstep=4 / ip_ratio=1.40 / aq=1:1.00
Encoded date : UTC 2013-04-11 14:40:34
Tagged date : UTC 2013-04-11 16:06:44
Color primaries : BT.601-6 525, BT.1358 525, BT.1700 NTSC, SMPTE 170M
Transfer characteristics : BT.709-5, BT.1361
Matrix coefficients : BT.601-6 525, BT.1358 525, BT.1700 NTSC, SMPTE 170M

Audio #1
ID : 2
Format : AAC
Format/Info : Advanced Audio Codec
Format profile : LC
Codec ID : 40
Duration : 1h 44mn
Bit rate mode : Variable
Bit rate : 160 Kbps
Maximum bit rate : 226 Kbps
Channel(s) : 2 channels
Channel positions : Front: L R
Sampling rate : 48.0 KHz
Compression mode : Lossy
Delay relative to video : -83ms
Stream size : 119 MiB (13%)
Language : Portuguese
Encoded date : UTC 2013-04-11 14:40:34
Tagged date : UTC 2013-04-11 16:06:44

Audio #2
ID : 3
Format : AAC
Format/Info : Advanced Audio Codec
Format profile : LC
Codec ID : 40
Duration : 1h 44mn
Bit rate mode : Variable
Bit rate : 160 Kbps
Maximum bit rate : 325 Kbps
Channel(s) : 2 channels
Channel positions : Front: L R
Sampling rate : 48.0 KHz
Compression mode : Lossy
Delay relative to video : -83ms
Stream size : 119 MiB (13%)
Language : Spanish
Encoded date : UTC 2013-04-11 14:40:34
Tagged date : UTC 2013-04-11 16:06:44

Audio #3
ID : 4
Format : AAC
Format/Info : Advanced Audio Codec
Format profile : LC
Codec ID : 40
Duration : 1h 44mn
Bit rate mode : Variable
Bit rate : 160 Kbps
Maximum bit rate : 280 Kbps
Channel(s) : 2 channels
Channel positions : Front: L R
Sampling rate : 48.0 KHz
Compression mode : Lossy
Delay relative to video : -83ms
Stream size : 119 MiB (13%)
Language : English
Encoded date : UTC 2013-04-11 14:40:34
Tagged date : UTC 2013-04-11 16:06:44

Text #1
ID : 5
Format : mp4s
Codec ID : E0
Duration : 1h 44mn
Bit rate mode : Variable
Bit rate : 2 313 bps
Maximum bit rate : 4 165 Mbps
Delay relative to video : -83ms
Stream size : 1.72 MiB (0%)
Language : English
Encoded date : UTC 2013-04-11 14:40:34
Tagged date : UTC 2013-04-11 16:06:44

Text #2
ID : 6
Format : mp4s
Codec ID : E0
Duration : 1h 44mn
Bit rate mode : Variable
Bit rate : 2 251 bps
Maximum bit rate : 4 165 Mbps
Delay relative to video : -83ms
Stream size : 1.68 MiB (0%)
Language : Portuguese
Encoded date : UTC 2013-04-11 14:40:34
Tagged date : UTC 2013-04-11 16:06:44

Text #3
ID : 7
Format : mp4s
Codec ID : E0
Duration : 1h 44mn
Bit rate mode : Variable
Bit rate : 2 354 bps
Maximum bit rate : 4 165 Mbps
Delay relative to video : -83ms
Stream size : 1.75 MiB (0%)
Language : Spanish
Encoded date : UTC 2013-04-11 14:40:34
Tagged date : UTC 2013-04-11 16:06:44

Text #4
ID : 8
Format : Apple text
Codec ID : text
Duration : 1h 44mn
Bit rate mode : Variable
Bit rate : 0 bps
Stream size : 351 Bytes (0%)
Encoded date : UTC 2013-04-11 14:40:34
Tagged date : UTC 2013-04-11 16:06:44
